<?xml version="1.0" standalone="no"?>
<!DOCTYPE svg PUBLIC "-//W3C//DTD SVG 20010904//EN"
 "http://www.w3.org/TR/2001/REC-SVG-20010904/DTD/svg10.dtd">
<svg version="1.0" xmlns="http://www.w3.org/2000/svg"
 width="200.000000pt" height="200.000000pt" viewBox="0 0 200.000000 200.000000"
 preserveAspectRatio="xMidYMid meet">

<g transform="translate(0.000000,200.000000) scale(0.100000,-0.100000)"
fill="#000000" stroke="none">
<path d="M558 1372 c-240 -202 -443 -373 -450 -381 -15 -17 -19 -20 480 338
216 154 397 281 403 281 8 0 718 -486 872 -597 26 -19 47 -32 47 -30 0 6 -908
758 -913 756 -1 0 -199 -166 -439 -367z"/>
<path d="M501 1538 c2 -141 1 -142 24 49 6 50 7 52 43 58 71 12 71 25 0 25
l-68 0 1 -132z"/>
<path d="M1627 868 c-3 -51 -11 -196 -18 -322 l-13 -228 -587 3 c-323 2 -590
6 -593 9 -2 3 -14 131 -26 285 -11 154 -23 285 -25 290 -2 6 -4 -137 -4 -317
l-1 -328 640 0 640 0 0 350 c0 193 -2 350 -3 350 -2 0 -7 -42 -10 -92z"/>
</g>
</svg>
